# File created by Blade
# Date/Time:  Thu Jan 22 16:10:22 2015
#---------------------------------------------------------
:version 1.10
:name HOM
:units
  mass 1.0
  length 1.000000
  angle deg
:documentation
     Acclaim Skeleton File
:root
   axis xyz
   order TX TY TZ RX RY RZ
   position 0.000000 0.000000 0.000000
   orientation 0 0 0
:bonedata
   begin
      id 1
      name RightUpLeg_dum
      direction -1.000000 0.000000 0.000000
      length 3.766986
      axis 0.0 0.0 0.0 xyz
   end
   begin
      id 2
      name LeftUpLeg_dum
      direction 1.000000 0.000000 0.000000
      length 3.766986
      axis 0.0 0.0 0.0 xyz
   end
   begin
      id 3
      name Spine_dum
      direction 0.000000 1.000000 0.000000
      length 7.779697
      axis 0.0 0.0 0.0 xyz
   end
   begin
      id 4
      name RightUpLeg
      direction 0.000000 -1.000000 0.000000
      length 18.017682
      axis 0.0 0.0 0.0 xyz
      dof rx ry rz
   end
   begin
      id 5
      name RightLeg
      direction 0.000000 -1.000000 0.000000
      length 16.881075
      axis 0.0 0.0 0.0 xyz
      dof rx ry rz
   end
   begin
      id 6
      name RightFoot
      direction 0.000000 -0.258819 0.965926
      length 5.770812
      axis 15.0 0.0 0.0 xyz
      dof rx ry rz
   end
   begin
      id 7
      name RightToeBase
      direction 0.000000 0.000000 1.000000
      length 2.952750
      axis 0.0 0.0 0.0 xyz
      dof rx ry rz
   end
   begin
      id 8
      name LeftUpLeg
      direction 0.000000 -1.000000 0.000000
      length 18.017682
      axis 0.0 0.0 0.0 xyz
      dof rx ry rz
   end
   begin
      id 9
      name LeftLeg
      direction 0.000000 -1.000000 0.000000
      length 16.881075
      axis 0.0 0.0 0.0 xyz
      dof rx ry rz
   end
   begin
      id 10
      name LeftFoot
      direction 0.000000 -0.258819 0.965926
      length 5.770812
      axis 15.0 0.0 0.0 xyz
      dof rx ry rz
   end
   begin
      id 11
      name LeftToeBase
      direction 0.000000 0.000000 1.000000
      length 2.952750
      axis 0.0 0.0 0.0 xyz
      dof rx ry rz
   end
   begin
      id 12
      name Spine
      direction 0.000000 1.000000 0.000000
      length 0.000000
      axis 0.0 0.0 0.0 xyz
      dof rx ry rz
   end
   begin
      id 13
      name Spine_dum1
      direction 0.000000 1.000000 0.000000
      length 10.941760
      axis 0.0 0.0 0.0 xyz
   end
   begin
      id 14
      name Spine_dum2
      direction 0.000000 1.000000 0.000000
      length 10.941760
      axis 0.0 0.0 0.0 xyz
   end
   begin
      id 15
      name Spine_dum3
      direction 0.000000 1.000000 0.000000
      length 16.646042
      axis 0.0 0.0 0.0 xyz
   end
   begin
      id 16
      name RightShoulder
      direction -1.000000 0.000000 0.000000
      length 7.708937
      axis 0.0 0.0 90.0 xyz
      dof rx ry rz
   end
   begin
      id 17
      name RightArm
      direction -1.000000 0.000000 0.000000
      length 11.521345
      axis 0.0 0.0 90.0 xyz
      dof rx ry rz
   end
   begin
      id 18
      name RightForeArm
      direction -1.000000 0.000000 0.000000
      length 10.175898
      axis 0.0 0.0 90.0 xyz
      dof ry rz rx
   end
   begin
      id 19
      name RightHand
      direction -1.000000 0.000000 0.000000
      length 0.000000
      axis 0.0 0.0 90.0 xyz
      dof rx ry rz
   end
   begin
      id 20
      name RightHand_dum1
      direction -1.000000 0.000000 0.000000
      length 3.937000
      axis 0.0 0.0 90.0 xyz
   end
   begin
      id 21
      name RightHand_dum2
      direction 0.000000 0.000000 0.000000
      length 0.000000
      axis 0.0 0.0 90.0 xyz
   end
   begin
      id 22
      name RightHandThumb1
      direction 0.000000 0.000000 1.000000
      length 3.937000
      axis 0.0 0.0 90.0 xyz
      dof rx rz ry
   end
   begin
      id 23
      name LeftShoulder
      direction 1.000000 0.000000 0.000000
      length 7.708937
      axis 0.0 0.0 -90.0 xyz
      dof rx ry rz
   end
   begin
      id 24
      name LeftArm
      direction 1.000000 0.000000 0.000000
      length 11.521345
      axis 0.0 0.0 -90.0 xyz
      dof rx ry rz
   end
   begin
      id 25
      name LeftForeArm
      direction 1.000000 0.000000 0.000000
      length 10.175898
      axis 0.0 0.0 -90.0 xyz
      dof ry rz rx
   end
   begin
      id 26
      name LeftHand
      direction 1.000000 0.000000 0.000000
      length 0.000000
      axis 0.0 0.0 -90.0 xyz
      dof rx ry rz
   end
   begin
      id 27
      name LeftHand_dum1
      direction 1.000000 0.000000 0.000000
      length 3.937000
      axis 0.0 0.0 -90.0 xyz
   end
   begin
      id 28
      name LeftHand_dum2
      direction 0.000000 0.000000 0.000000
      length 0.000000
      axis 0.0 0.0 -90.0 xyz
   end
   begin
      id 29
      name LeftHandThumb1
      direction 0.000000 0.000000 1.000000
      length 3.937000
      axis 0.0 0.0 -90.0 xyz
      dof rx rz ry
   end
   begin
      id 30
      name Head
      direction 0.000000 1.000000 0.000000
      length 4.527550
      axis 0.0 0.0 0.0 xyz
      dof rx ry rz
   end
:hierarchy
   begin
      root RightUpLeg_dum LeftUpLeg_dum Spine_dum
      RightUpLeg_dum RightUpLeg
      LeftUpLeg_dum LeftUpLeg
      Spine_dum Spine
      RightUpLeg RightLeg
      RightLeg RightFoot
      RightFoot RightToeBase
      LeftUpLeg LeftLeg
      LeftLeg LeftFoot
      LeftFoot LeftToeBase
      Spine Spine_dum1 Spine_dum2 Spine_dum3
      Spine_dum1 RightShoulder
      Spine_dum2 LeftShoulder
      Spine_dum3 Head
      RightShoulder RightArm
      RightArm RightForeArm
      RightForeArm RightHand
      RightHand RightHand_dum1 RightHand_dum2
      RightHand_dum2 RightHandThumb1
      LeftShoulder LeftArm
      LeftArm LeftForeArm
      LeftForeArm LeftHand
      LeftHand LeftHand_dum1 LeftHand_dum2
      LeftHand_dum2 LeftHandThumb1
   end

# File created by Blade
# Date/Time:  Thu Jan 22 16:10:14 2015
# Frame Rate: 120.000 fps
#------------------------------------------------------
:FULLY-SPECIFIED
:DEGREES
352
root 0.408377 34.493348 2.170394 -3.320963 -2.146635 1.958438
RightUpLeg 6.503394 -7.768742 -24.975269
RightLeg -5.547244 -0.000000 0.000000
RightFoot -3.947829 -20.239723 31.057499
RightToeBase 9.906335 -0.000000 -0.000000
LeftUpLeg 5.552693 5.984013 21.911277
LeftLeg 2.850892 -0.000000 -0.000000
LeftFoot -7.940740 7.288314 -29.482301
LeftToeBase 2.056490 -0.000000 -0.000000
Spine 11.958663 -5.246635 -3.052585
RightShoulder -5.099090 -17.222281 -24.554232
RightArm 11.136941 21.735067 39.708919
RightForeArm 5.136787 -0.000000 30.638985
RightHand 2.880829 0.000000 -3.490438
RightHandThumb1 -24.326973 -0.000000 -32.862282
LeftShoulder -26.770745 34.445578 9.573255
LeftArm 47.487207 -43.037408 -60.731850
LeftForeArm 34.065584 0.000000 14.563456
LeftHand -17.751324 -0.000000 -3.865514
LeftHandThumb1 -26.253704 0.000000 33.147579
Head -0.112849 12.621598 -0.486914
353
root 0.343469 34.504297 2.141958 -3.044507 -2.322343 1.738979
RightUpLeg 6.102865 -7.626125 -24.571370
RightLeg -5.484246 -0.000000 0.000000
RightFoot -4.106583 -20.261594 30.982633
RightToeBase 9.953417 -0.000000 -0.000000
LeftUpLeg 5.376080 5.808968 22.112786
LeftLeg 2.805692 -0.000000 -0.000000
LeftFoot -8.212372 7.292858 -29.442556
LeftToeBase 2.492037 -0.000000 -0.000000
Spine 11.576917 -5.136488 -2.534332
RightShoulder -5.085805 -17.100666 -24.724849
RightArm 11.169513 21.810031 39.475372
RightForeArm 5.212283 -0.000000 30.446166
RightHand 2.714565 -0.000000 -3.415629
RightHandThumb1 -24.326973 -0.000000 -32.862282
LeftShoulder -26.767266 34.382274 9.520928
LeftArm 47.315613 -42.823271 -60.740446
LeftForeArm 34.398597 0.000000 14.356189
LeftHand -17.603266 -0.000000 -4.302843
LeftHandThumb1 -26.253704 0.000000 33.147579
Head -0.036062 12.773664 -0.706002
354
root 0.282335 34.514378 2.115989 -2.774299 -2.501030 1.518707
RightUpLeg 5.715304 -7.448591 -24.175331
RightLeg -5.429230 -0.000000 0.000000
RightFoot -4.216369 -20.311759 30.824858
RightToeBase 9.966759 -0.000000 -0.000000
LeftUpLeg 5.203010 5.667876 22.319840
LeftLeg 2.763683 -0.000000 -0.000000
LeftFoot -8.361842 7.249808 -29.335012
LeftToeBase 2.672058 -0.000000 -0.000000
Spine 11.189446 -5.035517 -2.021969
RightShoulder -5.036113 -17.004083 -24.871081
RightArm 11.195912 21.940680 39.232389
RightForeArm 5.184972 -0.000000 30.267266
RightHand 2.696648 -0.000000 -3.305141
RightHandThumb1 -24.326973 -0.000000 -32.862282
LeftShoulder -26.767298 34.366070 9.434422
LeftArm 47.181285 -42.691554 -60.730749
LeftForeArm 34.674515 0.000000 14.043522
LeftHand -17.588399 -0.000000 -4.548255
LeftHandThumb1 -26.253704 0.000000 33.147579
Head 0.088053 12.896130 -0.910119
355
root 0.225676 34.523058 2.084858 -2.527402 -2.673449 1.325315
RightUpLeg 5.334491 -7.208393 -23.820184
RightLeg -5.354174 -0.000000 0.000000
RightFoot -4.380786 -20.346749 30.751572
RightToeBase 10.034907 -0.000000 -0.000000
LeftUpLeg 5.040978 5.353197 22.480434
LeftLeg 2.721497 -0.000000 -0.000000
LeftFoot -8.586268 7.306932 -29.360091
LeftToeBase 3.066211 -0.000000 -0.000000
Spine 10.864731 -4.944761 -1.550179
RightShoulder -5.013076 -16.895977 -24.991536
RightArm 11.234638 22.041751 38.979224
RightForeArm 5.218037 0.000000 30.157959
RightHand 2.682970 0.000000 -3.295592
RightHandThumb1 -24.326973 -0.000000 -32.862282
LeftShoulder -26.746367 34.381198 9.373791
LeftArm 47.165369 -42.700355 -60.917580
LeftForeArm 35.072670 -0.000000 13.677228
LeftHand -17.563405 -0.000000 -4.641558
LeftHandThumb1 -26.253704 0.000000 33.147579
Head 0.155040 13.106167 -1.085347
356
root 0.176540 34.529771 2.058628 -2.355237 -2.809795 1.162326
RightUpLeg 5.053263 -7.027357 -23.530666
RightLeg -5.289743 -0.000000 0.000000
RightFoot -4.511793 -20.311135 30.687610
RightToeBase 10.033294 -0.000000 -0.000000
LeftUpLeg 4.927342 5.055534 22.615070
LeftLeg 2.697880 -0.000000 -0.000000
LeftFoot -8.692214 7.284466 -29.254597
LeftToeBase 2.904821 -0.000000 -0.000000
Spine 10.652027 -4.914468 -1.118315
RightShoulder -4.974517 -16.671253 -25.154861
RightArm 11.232458 22.145290 38.799672
RightForeArm 5.192089 -0.000000 30.072937
RightHand 2.748147 -0.000000 -3.370181
RightHandThumb1 -24.326973 -0.000000 -32.862282
LeftShoulder -26.696930 34.306588 9.390074
LeftArm 46.985167 -42.672546 -61.035340
LeftForeArm 35.167053 -0.000000 13.299056
LeftHand -17.514888 -0.000000 -4.508293
LeftHandThumb1 -26.253704 0.000000 33.147579
Head 0.178417 13.283097 -1.246212
357
root 0.129904 34.535108 2.034213 -2.214880 -2.919507 1.003987
RightUpLeg 4.821866 -6.878166 -23.261900
RightLeg -5.226568 -0.000000 0.000000
RightFoot -4.659140 -20.253457 30.649926
RightToeBase 10.043324 -0.000000 -0.000000
LeftUpLeg 4.832774 4.611249 22.738704
LeftLeg 2.673976 -0.000000 -0.000000
LeftFoot -8.874324 7.267923 -29.355674
LeftToeBase 3.113242 -0.000000 -0.000000
Spine 10.482229 -4.903553 -0.707139
RightShoulder -4.927464 -16.474546 -25.290891
RightArm 11.230424 22.363784 38.659534
RightForeArm 5.155346 -0.000000 30.062137
RightHand 2.691974 -0.000000 -3.475556
RightHandThumb1 -24.326973 -0.000000 -32.862282
LeftShoulder -26.696980 34.312655 9.357517
LeftArm 47.101868 -42.821655 -61.423450
LeftForeArm 35.311385 -0.000000 12.870700
LeftHand -17.491537 -0.000000 -4.470761
LeftHandThumb1 -26.253704 0.000000 33.147579
Head 0.187634 13.420943 -1.361522
358
root 0.088952 34.537249 2.015513 -2.153755 -3.057534 0.877833
RightUpLeg 4.667239 -6.692111 -23.050964
RightLeg -5.181000 -0.000000 0.000000
RightFoot -4.793154 -20.142163 30.612034
RightToeBase 10.039586 -0.000000 -0.000000
LeftUpLeg 4.833639 4.292146 22.853305
LeftLeg 2.658659 -0.000000 -0.000000
LeftFoot -8.899316 7.136229 -29.358676
LeftToeBase 3.089959 -0.000000 -0.000000
Spine 10.407195 -4.834513 -0.335320
RightShoulder -4.896440 -16.372790 -25.427219
RightArm 11.258934 22.685659 38.598366
RightForeArm 5.105068 -0.000000 30.113991
RightHand 2.717040 -0.000000 -3.670398
RightHandThumb1 -24.326973 -0.000000 -32.862282
LeftShoulder -26.601517 34.312546 9.403550
LeftArm 47.145964 -42.996533 -61.787526
LeftForeArm 35.333199 -0.000000 12.437484
LeftHand -17.757743 -0.000000 -4.258806
LeftHandThumb1 -26.253704 0.000000 33.147579
Head 0.193135 13.619333 -1.430066
